HIERARCHY
ROOT hip
{
  OFFSET 0 0 0
  CHANNELS 6 Xposition Yposition Zposition Zrotation Yrotation Xrotation
  JOINT abdomen
  {
    OFFSET 0 20.6881 -0.73152
    CHANNELS 3 Zrotation Xrotation Yrotation
    JOINT chest
    {
      OFFSET 0 11.7043 -0.48768
      CHANNELS 3 Zrotation Xrotation Yrotation
      JOINT neck
      {
        OFFSET 0 22.1894 -2.19456
        CHANNELS 3 Zrotation Xrotation Yrotation
        JOINT head
        {
          OFFSET -0.24384 7.07133 1.2192
          CHANNELS 3 Zrotation Xrotation Yrotation
          JOINT leftEye
          {
            OFFSET 4.14528 8.04674 8.04672
            CHANNELS 3 Zrotation Xrotation Yrotation
            End Site
            {
              OFFSET 1 0 0
            }
          }
          JOINT rightEye
          {
            OFFSET -3.6576 8.04674 8.04672
            CHANNELS 3 Zrotation Xrotation Yrotation
            End Site
            {
              OFFSET 1 0 0
            }
          }
        }
      }
      JOINT rCollar
      {
        OFFSET -2.68224 19.2634 -4.8768
        CHANNELS 3 Zrotation Xrotation Yrotation
        JOINT rShldr
        {
          OFFSET -8.77824 -1.95073 1.46304
          CHANNELS 3 Zrotation Xrotation Yrotation
          JOINT rForeArm
          {
            OFFSET -28.1742 -1.7115 0.48768
            CHANNELS 3 Zrotation Xrotation Yrotation
            JOINT rHand
            {
              OFFSET -22.5879 0.773209 7.07136
              CHANNELS 3 Zrotation Xrotation Yrotation
              JOINT rThumb1
              {
                OFFSET -1.2192 -0.487915 3.41376
                CHANNELS 3 Zrotation Xrotation Yrotation
                JOINT rThumb2
                {
                  OFFSET -3.37035 -0.52449 3.41376
                  CHANNELS 3 Zrotation Xrotation Yrotation
                  End Site
                  {
                    OFFSET -1.78271 -1.18214 1.43049
                  }
                }
              }
              JOINT rIndex1
              {
                OFFSET -7.75947 0.938293 5.60832
                CHANNELS 3 Zrotation Xrotation Yrotation
                JOINT rIndex2
                {
                  OFFSET -2.54057 -0.884171 1.56538
                  CHANNELS 3 Zrotation Xrotation Yrotation
                  End Site
                  {
                    OFFSET -1.62519 -0.234802 1.16502
                  }
                }
              }
              JOINT rMid1
              {
                OFFSET -8.24714 1.18213 3.41376
                CHANNELS 3 Zrotation Xrotation Yrotation
                JOINT rMid2
                {
                  OFFSET -3.10165 -0.590103 1.0647
                  CHANNELS 3 Zrotation Xrotation Yrotation
                  End Site
                  {
                    OFFSET -2.48547 -0.328903 0.83742
                  }
                }
              }
              JOINT rRing1
              {
                OFFSET -8.82822 0.546677 1.51678
                CHANNELS 3 Zrotation Xrotation Yrotation
                JOINT rRing2
                {
                  OFFSET -2.60934 -0.819778 -0.0198488
                  CHANNELS 3 Zrotation Xrotation Yrotation
                  End Site
                  {
                    OFFSET -2.33842 -0.294052 0.168128
                  }
                }
              }
              JOINT rPinky1
              {
                OFFSET -8.27202 -0.0477905 -0.4584
                CHANNELS 3 Zrotation Xrotation Yrotation
                JOINT rPinky2
                {
                  OFFSET -1.82734 -0.647385 -0.700984
                  CHANNELS 3 Zrotation Xrotation Yrotation
                  End Site
                  {
                    OFFSET -1.69225 -0.51767 -0.607171
                  }
                }
              }
            }
          }
        }
      }
      JOINT lCollar
      {
        OFFSET 2.68224 19.2634 -4.8768
        CHANNELS 3 Zrotation Xrotation Yrotation
        JOINT lShldr
        {
          OFFSET 8.77824 -1.95073 1.46304
          CHANNELS 3 Zrotation Xrotation Yrotation
          JOINT lForeArm
          {
            OFFSET 28.1742 -1.7115 0.48768
            CHANNELS 3 Zrotation Xrotation Yrotation
            JOINT lHand
            {
              OFFSET 22.5879 0.773209 7.07136
              CHANNELS 3 Zrotation Xrotation Yrotation
              JOINT lThumb1
              {
                OFFSET 1.2192 -0.487915 3.41376
                CHANNELS 3 Zrotation Xrotation Yrotation
                JOINT lThumb2
                {
                  OFFSET 3.37035 -0.52449 3.41376
                  CHANNELS 3 Zrotation Xrotation Yrotation
                  End Site
                  {
                    OFFSET 1.78271 -1.18214 1.43049
                  }
                }
              }
              JOINT lIndex1
              {
                OFFSET 7.75947 0.938293 5.60832
                CHANNELS 3 Zrotation Xrotation Yrotation
                JOINT lIndex2
                {
                  OFFSET 2.54057 -0.884171 1.56538
                  CHANNELS 3 Zrotation Xrotation Yrotation
                  End Site
                  {
                    OFFSET 1.62519 -0.234802 1.16502
                  }
                }
              }
              JOINT lMid1
              {
                OFFSET 8.24714 1.18213 3.41376
                CHANNELS 3 Zrotation Xrotation Yrotation
                JOINT lMid2
                {
                  OFFSET 3.10165 -0.590103 1.0647
                  CHANNELS 3 Zrotation Xrotation Yrotation
                  End Site
                  {
                    OFFSET 2.48547 -0.328903 0.83742
                  }
                }
              }
              JOINT lRing1
              {
                OFFSET 8.82822 0.546677 1.51678
                CHANNELS 3 Zrotation Xrotation Yrotation
                JOINT lRing2
                {
                  OFFSET 2.60934 -0.819778 -0.0198488
                  CHANNELS 3 Zrotation Xrotation Yrotation
                  End Site
                  {
                    OFFSET 2.33842 -0.294052 0.168128
                  }
                }
              }
              JOINT lPinky1
              {
                OFFSET 8.27202 -0.0477905 -0.4584
                CHANNELS 3 Zrotation Xrotation Yrotation
                JOINT lPinky2
                {
                  OFFSET 1.82734 -0.647385 -0.700984
                  CHANNELS 3 Zrotation Xrotation Yrotation
                  End Site
                  {
                    OFFSET 1.69225 -0.51767 -0.607171
                  }
                }
              }
            }
          }
        }
      }
    }
  }
  JOINT rButtock
  {
    OFFSET -8.77824 4.35084 1.2192
    CHANNELS 3 Zrotation Xrotation Yrotation
    JOINT rThigh
    {
      OFFSET 0 -1.70687 -2.19456
      CHANNELS 3 Zrotation Xrotation Yrotation
      JOINT rShin
      {
        OFFSET 0 -36.8199 0.73152
        CHANNELS 3 Zrotation Xrotation Yrotation
        JOINT rFoot
        {
          OFFSET 0.73152 -45.1104 -5.12064
          CHANNELS 3 Zrotation Xrotation Yrotation
          End Site
          {
            OFFSET -1.1221 -3.69964 12.103
          }
        }
      }
    }
  }
  JOINT lButtock
  {
    OFFSET 8.77824 4.35084 1.2192
    CHANNELS 3 Zrotation Xrotation Yrotation
    JOINT lThigh
    {
      OFFSET 0 -1.70687 -2.19456
      CHANNELS 3 Zrotation Xrotation Yrotation
      JOINT lShin
      {
        OFFSET 0 -36.8199 0.73152
        CHANNELS 3 Zrotation Xrotation Yrotation
        JOINT lFoot
        {
          OFFSET -0.73152 -45.1104 -5.12064
          CHANNELS 3 Zrotation Xrotation Yrotation
          End Site
          {
            OFFSET 1.1221 -3.69964 12.103
          }
        }
      }
    }
  }
}
MOTION
Frames:	5
Frame Time:	0.00833333
0.0 0.0 0.0 0.0 0.0 0.0 0.0 0.0 0.0 0.0 0.0 0.0 0.0 0.0 0.0 0.0 0.0 0.0 0.0 0.0 0.0 0.0 0.0 0.0 0.0 0.0 0.0 0.0 0.0 0.0 0.0 0.0 0.0 0.0 0.0 0.0 0.0 0.0 0.0 0.0 0.0 0.0 0.0 0.0 0.0 0.0 0.0 0.0 0.0 0.0 0.0 0.0 0.0 0.0 0.0 0.0 0.0 0.0 0.0 0.0 0.0 0.0 0.0 0.0 0.0 0.0 0.0 0.0 0.0 0.0 0.0 0.0 0.0 0.0 0.0 0.0 0.0 0.0 0.0 0.0 0.0 0.0 0.0 0.0 0.0 0.0 0.0 0.0 0.0 0.0 0.0 0.0 0.0 0.0 0.0 0.0 0.0 0.0 0.0 0.0 0.0 0.0 0.0 0.0 0.0 0.0 0.0 0.0 0.0 0.0 0.0 0.0 0.0 0.0 0.0 0.0 0.0 0.0 0.0 0.0 0.0 0.0 0.0 0.0 0.0 0.0 0.0 0.0 0.0 0.0 0.0 0.0
0.010799999999999999 62.12220000000001 0.1116 -179.725734 -66.533762 178.815504 -0.204095 -0.945193 167.814668 3.454269 -12.397728 -163.04964 -6.968387 -2.575457 -126.936738 43.835089 33.647743 109.832434 36.763937 -0.122219 -0.367789 31.025587 -7.869211 -27.834843 63.245205 27.767567 11.902149 -164.988471 -28.287864 169.113423 -178.937885 6.034284 -33.050904 2.098542 18.720197 -56.826789 2.875374 -13.757758 33.917903 22.372458 17.033392 -147.046211 40.056832 33.941149 -89.797569 -12.673429 -25.885137 40.754385 143.1758 31.237963 -117.610706 -158.507832 -7.93747 140.099173 79.946393 19.269309 -79.42839 10.186744 26.566242 -0.392732 85.884571 17.529601 -60.089246 -140.924057 -7.779541 -137.474965 89.456271 -54.393279 -169.080198 -13.146899 -62.916375 -4.514958 163.991333 43.566238 31.141449 -23.285272 -39.950674 21.315224 177.255972 3.406259 -79.276191 -49.611946 -61.436578 -21.138218 -4.702068 -29.882996 -15.418576 137.061615 20.225378 -102.335808 163.585602 9.533844 -131.683932 177.885872 -30.48655 -146.277989 -160.240788 23.960376 60.704989 -9.37693 13.847374 6.880514 167.405013 37.590506 42.892977 -22.41701 57.972508 -7.23728 -18.188188 52.63535 -156.4789 1.437971 53.525732 114.156421 -2.87075 6.765224 -144.10268 -65.488365 -17.417389 112.362701 -4.550797 -48.643873 -6.052903 1.41193 49.924008 -1.062427 2.755267 -4.530121 30.005601 -46.039027 69.699536 42.345747
0.5004 53.6083 0.365 9.978943 27.38767 9.950133 -12.713566 8.336034 -64.29604 7.602121 -2.972094 70.279601 7.801562 27.515618 95.838324 -37.917502 17.776051 -133.804777 0.343211 0.003039 1.014614 -0.408203 -0.000553 0.155307 -13.268473 43.47443 14.351938 121.118459 -35.843818 138.270368 11.755894 3.557092 16.458247 -22.166092 66.40228 15.493184 72.947155 -48.105788 24.486712 -135.952004 10.875162 105.670076 -135.879507 1.99878 111.741057 -49.318585 50.285117 39.623211 67.236926 -80.659702 36.534069 -42.727824 57.360717 38.858293 -0.684263 -1.84062 0.733186 -18.052967 73.164209 36.480623 -145.000468 79.243995 -174.958753 -154.176352 53.511644 -160.555544 -4.311182 -33.260661 4.373387 57.8978 -28.019779 98.380239 1.645643 -19.181112 137.583864 158.363764 15.65273 -135.641192 96.890729 37.392986 -52.494259 134.756059 -18.440429 -73.779008 154.503499 -18.18744 -122.627839 171.226071 -52.575865 -122.167734 126.509302 50.199362 -115.539862 172.156057 -48.748412 -152.321967 144.246548 -1.133183 -177.884935 -12.498669 -0.108239 5.703433 -0.827064 -0.177972 -2.018769 155.946537 35.797681 148.611612 178.268313 74.023812 1.303635 151.041425 -5.386116 -3.59972 -52.783974 74.461521 11.14556 97.090376 26.374079 -10.19563 0.025795 1.202361 -0.033699 16.427368 13.472972 -31.219685 -23.419422 31.678982 163.166151 -21.502381 9.083943 -93.890868
0.5792 52.844500000000004 0.7784 10.865523 26.06841 10.933283 -15.875166 6.877978 -88.133831 8.378189 2.716847 93.589925 -7.051407 16.531911 -2.23922 4.523817 -27.277226 -35.175992 0.314875 0.001756 0.639182 1.258363 -0.008025 -0.73076 -0.00244 -1.097453 0.641843 -108.52571 28.998262 101.830537 11.749324 22.801416 -54.654792 156.779708 -32.116473 142.34818 -167.838563 -4.079786 88.721749 -50.384119 -10.989257 14.368718 -156.390664 -23.805246 122.566998 -161.185997 -21.670914 120.884069 -35.65671 52.560988 27.749974 -85.603553 61.903043 77.817619 -146.193592 3.560284 177.522127 -155.677302 -25.825708 178.776129 -81.141249 -51.569816 -78.698162 -155.850996 52.878617 -149.90559 155.519381 -3.24466 -162.837417 49.050942 -19.510145 -37.535895 -33.596907 9.550204 145.345346 126.845169 48.514522 -108.471394 10.872778 9.093257 -1.923085 -12.033704 -14.525295 4.583289 11.97454 17.181466 -5.372491 10.806711 25.097498 -8.241627 82.842047 63.088178 -74.326041 163.053385 -3.781826 -143.792658 41.575159 -66.112434 54.086945 -16.399124 7.731997 6.481425 -3.140817 11.992325 -2.284353 140.141929 -1.679314 141.108217 0.502773 -0.40221 0.250509 -77.981132 -62.026189 -164.672969 -80.91255 -12.055603 49.88796 92.520504 28.771381 -8.164437 0.010787 -1.279149 0.483219 11.563793 16.473067 100.753379 26.161504 -5.635075 -85.999814 33.048048 -3.169725 11.843599
0.6479999999999999 52.939 1.0027 10.513731 25.775875 11.072243 -18.242524 9.020844 -0.0 5.661952 -10.697105 6.637988 -13.73143 20.757409 -47.234735 30.571744 -14.164981 13.349118 0.682032 0.009145 1.536388 1.405194 -0.013474 -1.098658 -142.278521 39.840137 146.690992 145.963818 33.358013 -150.989622 -4.487099 43.84113 24.875658 -5.113883 39.591766 3.874295 3.455426 -4.8223 0.257149 -39.867114 25.616782 32.596234 -1.421522 0.180444 0.454879 56.343198 -47.380826 14.012552 -161.732768 -7.427166 141.623224 -87.980539 63.248822 80.64351 -0.287586 -1.531557 0.926928 -156.066125 -1.009225 171.988047 3.548719 0.717959 2.011028 -2.046683 -0.996462 -0.376115 131.466558 55.121683 -135.317361 100.557974 1.625548 -101.232562 92.686689 26.246869 117.068119 176.623524 -72.178009 -161.567158 166.229943 -1.895608 -88.757933 -113.676532 -58.102076 -78.786669 139.677285 5.042763 -113.003017 166.144608 -20.962551 -115.544347 125.447464 49.029265 -113.920161 87.307617 62.107211 -80.799722 3.713283 -0.905492 -0.443181 121.471864 -82.598451 148.809296 -5.835619 15.92977 -5.42232 -17.591729 81.911195 -19.209198 0.031708 -0.662141 -0.040399 -77.176339 -61.942211 -164.711521 -90.536981 -11.806557 -36.916388 -122.100129 65.415509 -152.025508 1.833119 -1.852791 0.902221 10.687153 16.911439 104.122588 39.233738 -4.070961 95.092183 -118.370606 -4.866266 175.205935
